<svg version="1.1" id="Layer_1" xmlns="http://www.w3.org/2000/svg" xmlns:xlink="http://www.w3.org/1999/xlink" x="0px" y="0px"  height="500px" width="500px"><rect fill="black" x="40px" y="40px" width="20px" height="20px"/><rect fill="black" x="60px" y="40px" width="20px" height="20px"/><rect fill="black" x="80px" y="40px" width="20px" height="20px"/><rect fill="black" x="100px" y="40px" width="20px" height="20px"/><rect fill="black" x="120px" y="40px" width="20px" height="20px"/><rect fill="black" x="140px" y="40px" width="20px" height="20px"/><rect fill="black" x="160px" y="40px" width="20px" height="20px"/><rect fill="white" x="180px" y="40px" width="20px" height="20px"/><rect fill="white" x="200px" y="40px" width="20px" height="20px"/><rect fill="white" x="220px" y="40px" width="20px" height="20px"/><rect fill="black" x="240px" y="40px" width="20px" height="20px"/><rect fill="white" x="260px" y="40px" width="20px" height="20px"/><rect fill="black" x="280px" y="40px" width="20px" height="20px"/><rect fill="white" x="300px" y="40px" width="20px" height="20px"/><rect fill="black" x="320px" y="40px" width="20px" height="20px"/><rect fill="black" x="340px" y="40px" width="20px" height="20px"/><rect fill="black" x="360px" y="40px" width="20px" height="20px"/><rect fill="black" x="380px" y="40px" width="20px" height="20px"/><rect fill="black" x="400px" y="40px" width="20px" height="20px"/><rect fill="black" x="420px" y="40px" width="20px" height="20px"/><rect fill="black" x="440px" y="40px" width="20px" height="20px"/><rect fill="black" x="40px" y="60px" width="20px" height="20px"/><rect fill="white" x="60px" y="60px" width="20px" height="20px"/><rect fill="white" x="80px" y="60px" width="20px" height="20px"/><rect fill="white" x="100px" y="60px" width="20px" height="20px"/><rect fill="white" x="120px" y="60px" width="20px" height="20px"/><rect fill="white" x="140px" y="60px" width="20px" height="20px"/><rect fill="black" x="160px" y="60px" width="20px" height="20px"/><rect fill="white" x="180px" y="60px" width="20px" height="20px"/><rect fill="white" x="200px" y="60px" width="20px" height="20px"/><rect fill="white" x="220px" y="60px" width="20px" height="20px"/><rect fill="white" x="240px" y="60px" width="20px" height="20px"/><rect fill="white" x="260px" y="60px" width="20px" height="20px"/><rect fill="black" x="280px" y="60px" width="20px" height="20px"/><rect fill="white" x="300px" y="60px" width="20px" height="20px"/><rect fill="black" x="320px" y="60px" width="20px" height="20px"/><rect fill="white" x="340px" y="60px" width="20px" height="20px"/><rect fill="white" x="360px" y="60px" width="20px" height="20px"/><rect fill="white" x="380px" y="60px" width="20px" height="20px"/><rect fill="white" x="400px" y="60px" width="20px" height="20px"/><rect fill="white" x="420px" y="60px" width="20px" height="20px"/><rect fill="black" x="440px" y="60px" width="20px" height="20px"/><rect fill="black" x="40px" y="80px" width="20px" height="20px"/><rect fill="white" x="60px" y="80px" width="20px" height="20px"/><rect fill="black" x="80px" y="80px" width="20px" height="20px"/><rect fill="black" x="100px" y="80px" width="20px" height="20px"/><rect fill="black" x="120px" y="80px" width="20px" height="20px"/><rect fill="white" x="140px" y="80px" width="20px" height="20px"/><rect fill="black" x="160px" y="80px" width="20px" height="20px"/><rect fill="white" x="180px" y="80px" width="20px" height="20px"/><rect fill="black" x="200px" y="80px" width="20px" height="20px"/><rect fill="white" x="220px" y="80px" width="20px" height="20px"/><rect fill="black" x="240px" y="80px" width="20px" height="20px"/><rect fill="white" x="260px" y="80px" width="20px" height="20px"/><rect fill="white" x="280px" y="80px" width="20px" height="20px"/><rect fill="white" x="300px" y="80px" width="20px" height="20px"/><rect fill="black" x="320px" y="80px" width="20px" height="20px"/><rect fill="white" x="340px" y="80px" width="20px" height="20px"/><rect fill="black" x="360px" y="80px" width="20px" height="20px"/><rect fill="black" x="380px" y="80px" width="20px" height="20px"/><rect fill="black" x="400px" y="80px" width="20px" height="20px"/><rect fill="white" x="420px" y="80px" width="20px" height="20px"/><rect fill="black" x="440px" y="80px" width="20px" height="20px"/><rect fill="black" x="40px" y="100px" width="20px" height="20px"/><rect fill="white" x="60px" y="100px" width="20px" height="20px"/><rect fill="black" x="80px" y="100px" width="20px" height="20px"/><rect fill="black" x="100px" y="100px" width="20px" height="20px"/><rect fill="black" x="120px" y="100px" width="20px" height="20px"/><rect fill="white" x="140px" y="100px" width="20px" height="20px"/><rect fill="black" x="160px" y="100px" width="20px" height="20px"/><rect fill="white" x="180px" y="100px" width="20px" height="20px"/><rect fill="white" x="200px" y="100px" width="20px" height="20px"/><rect fill="white" x="220px" y="100px" width="20px" height="20px"/><rect fill="white" x="240px" y="100px" width="20px" height="20px"/><rect fill="white" x="260px" y="100px" width="20px" height="20px"/><rect fill="black" x="280px" y="100px" width="20px" height="20px"/><rect fill="white" x="300px" y="100px" width="20px" height="20px"/><rect fill="black" x="320px" y="100px" width="20px" height="20px"/><rect fill="white" x="340px" y="100px" width="20px" height="20px"/><rect fill="black" x="360px" y="100px" width="20px" height="20px"/><rect fill="black" x="380px" y="100px" width="20px" height="20px"/><rect fill="black" x="400px" y="100px" width="20px" height="20px"/><rect fill="white" x="420px" y="100px" width="20px" height="20px"/><rect fill="black" x="440px" y="100px" width="20px" height="20px"/><rect fill="black" x="40px" y="120px" width="20px" height="20px"/><rect fill="white" x="60px" y="120px" width="20px" height="20px"/><rect fill="black" x="80px" y="120px" width="20px" height="20px"/><rect fill="black" x="100px" y="120px" width="20px" height="20px"/><rect fill="black" x="120px" y="120px" width="20px" height="20px"/><rect fill="white" x="140px" y="120px" width="20px" height="20px"/><rect fill="black" x="160px" y="120px" width="20px" height="20px"/><rect fill="white" x="180px" y="120px" width="20px" height="20px"/><rect fill="white" x="200px" y="120px" width="20px" height="20px"/><rect fill="black" x="220px" y="120px" width="20px" height="20px"/><rect fill="white" x="240px" y="120px" width="20px" height="20px"/><rect fill="black" x="260px" y="120px" width="20px" height="20px"/><rect fill="black" x="280px" y="120px" width="20px" height="20px"/><rect fill="white" x="300px" y="120px" width="20px" height="20px"/><rect fill="black" x="320px" y="120px" width="20px" height="20px"/><rect fill="white" x="340px" y="120px" width="20px" height="20px"/><rect fill="black" x="360px" y="120px" width="20px" height="20px"/><rect fill="black" x="380px" y="120px" width="20px" height="20px"/><rect fill="black" x="400px" y="120px" width="20px" height="20px"/><rect fill="white" x="420px" y="120px" width="20px" height="20px"/><rect fill="black" x="440px" y="120px" width="20px" height="20px"/><rect fill="black" x="40px" y="140px" width="20px" height="20px"/><rect fill="white" x="60px" y="140px" width="20px" height="20px"/><rect fill="white" x="80px" y="140px" width="20px" height="20px"/><rect fill="white" x="100px" y="140px" width="20px" height="20px"/><rect fill="white" x="120px" y="140px" width="20px" height="20px"/><rect fill="white" x="140px" y="140px" width="20px" height="20px"/><rect fill="black" x="160px" y="140px" width="20px" height="20px"/><rect fill="white" x="180px" y="140px" width="20px" height="20px"/><rect fill="white" x="200px" y="140px" width="20px" height="20px"/><rect fill="black" x="220px" y="140px" width="20px" height="20px"/><rect fill="black" x="240px" y="140px" width="20px" height="20px"/><rect fill="black" x="260px" y="140px" width="20px" height="20px"/><rect fill="white" x="280px" y="140px" width="20px" height="20px"/><rect fill="white" x="300px" y="140px" width="20px" height="20px"/><rect fill="black" x="320px" y="140px" width="20px" height="20px"/><rect fill="white" x="340px" y="140px" width="20px" height="20px"/><rect fill="white" x="360px" y="140px" width="20px" height="20px"/><rect fill="white" x="380px" y="140px" width="20px" height="20px"/><rect fill="white" x="400px" y="140px" width="20px" height="20px"/><rect fill="white" x="420px" y="140px" width="20px" height="20px"/><rect fill="black" x="440px" y="140px" width="20px" height="20px"/><rect fill="black" x="40px" y="160px" width="20px" height="20px"/><rect fill="black" x="60px" y="160px" width="20px" height="20px"/><rect fill="black" x="80px" y="160px" width="20px" height="20px"/><rect fill="black" x="100px" y="160px" width="20px" height="20px"/><rect fill="black" x="120px" y="160px" width="20px" height="20px"/><rect fill="black" x="140px" y="160px" width="20px" height="20px"/><rect fill="black" x="160px" y="160px" width="20px" height="20px"/><rect fill="white" x="180px" y="160px" width="20px" height="20px"/><rect fill="black" x="200px" y="160px" width="20px" height="20px"/><rect fill="white" x="220px" y="160px" width="20px" height="20px"/><rect fill="black" x="240px" y="160px" width="20px" height="20px"/><rect fill="white" x="260px" y="160px" width="20px" height="20px"/><rect fill="black" x="280px" y="160px" width="20px" height="20px"/><rect fill="white" x="300px" y="160px" width="20px" height="20px"/><rect fill="black" x="320px" y="160px" width="20px" height="20px"/><rect fill="black" x="340px" y="160px" width="20px" height="20px"/><rect fill="black" x="360px" y="160px" width="20px" height="20px"/><rect fill="black" x="380px" y="160px" width="20px" height="20px"/><rect fill="black" x="400px" y="160px" width="20px" height="20px"/><rect fill="black" x="420px" y="160px" width="20px" height="20px"/><rect fill="black" x="440px" y="160px" width="20px" height="20px"/><rect fill="white" x="40px" y="180px" width="20px" height="20px"/><rect fill="white" x="60px" y="180px" width="20px" height="20px"/><rect fill="white" x="80px" y="180px" width="20px" height="20px"/><rect fill="white" x="100px" y="180px" width="20px" height="20px"/><rect fill="white" x="120px" y="180px" width="20px" height="20px"/><rect fill="white" x="140px" y="180px" width="20px" height="20px"/><rect fill="white" x="160px" y="180px" width="20px" height="20px"/><rect fill="white" x="180px" y="180px" width="20px" height="20px"/><rect fill="black" x="200px" y="180px" width="20px" height="20px"/><rect fill="white" x="220px" y="180px" width="20px" height="20px"/><rect fill="black" x="240px" y="180px" width="20px" height="20px"/><rect fill="white" x="260px" y="180px" width="20px" height="20px"/><rect fill="white" x="280px" y="180px" width="20px" height="20px"/><rect fill="white" x="300px" y="180px" width="20px" height="20px"/><rect fill="white" x="320px" y="180px" width="20px" height="20px"/><rect fill="white" x="340px" y="180px" width="20px" height="20px"/><rect fill="white" x="360px" y="180px" width="20px" height="20px"/><rect fill="white" x="380px" y="180px" width="20px" height="20px"/><rect fill="white" x="400px" y="180px" width="20px" height="20px"/><rect fill="white" x="420px" y="180px" width="20px" height="20px"/><rect fill="white" x="440px" y="180px" width="20px" height="20px"/><rect fill="black" x="40px" y="200px" width="20px" height="20px"/><rect fill="black" x="60px" y="200px" width="20px" height="20px"/><rect fill="black" x="80px" y="200px" width="20px" height="20px"/><rect fill="white" x="100px" y="200px" width="20px" height="20px"/><rect fill="black" x="120px" y="200px" width="20px" height="20px"/><rect fill="black" x="140px" y="200px" width="20px" height="20px"/><rect fill="black" x="160px" y="200px" width="20px" height="20px"/><rect fill="black" x="180px" y="200px" width="20px" height="20px"/><rect fill="black" x="200px" y="200px" width="20px" height="20px"/><rect fill="white" x="220px" y="200px" width="20px" height="20px"/><rect fill="black" x="240px" y="200px" width="20px" height="20px"/><rect fill="white" x="260px" y="200px" width="20px" height="20px"/><rect fill="black" x="280px" y="200px" width="20px" height="20px"/><rect fill="black" x="300px" y="200px" width="20px" height="20px"/><rect fill="black" x="320px" y="200px" width="20px" height="20px"/><rect fill="white" x="340px" y="200px" width="20px" height="20px"/><rect fill="white" x="360px" y="200px" width="20px" height="20px"/><rect fill="white" x="380px" y="200px" width="20px" height="20px"/><rect fill="black" x="400px" y="200px" width="20px" height="20px"/><rect fill="white" x="420px" y="200px" width="20px" height="20px"/><rect fill="white" x="440px" y="200px" width="20px" height="20px"/><rect fill="white" x="40px" y="220px" width="20px" height="20px"/><rect fill="black" x="60px" y="220px" width="20px" height="20px"/><rect fill="black" x="80px" y="220px" width="20px" height="20px"/><rect fill="white" x="100px" y="220px" width="20px" height="20px"/><rect fill="white" x="120px" y="220px" width="20px" height="20px"/><rect fill="white" x="140px" y="220px" width="20px" height="20px"/><rect fill="white" x="160px" y="220px" width="20px" height="20px"/><rect fill="black" x="180px" y="220px" width="20px" height="20px"/><rect fill="white" x="200px" y="220px" width="20px" height="20px"/><rect fill="white" x="220px" y="220px" width="20px" height="20px"/><rect fill="white" x="240px" y="220px" width="20px" height="20px"/><rect fill="black" x="260px" y="220px" width="20px" height="20px"/><rect fill="white" x="280px" y="220px" width="20px" height="20px"/><rect fill="black" x="300px" y="220px" width="20px" height="20px"/><rect fill="white" x="320px" y="220px" width="20px" height="20px"/><rect fill="black" x="340px" y="220px" width="20px" height="20px"/><rect fill="white" x="360px" y="220px" width="20px" height="20px"/><rect fill="white" x="380px" y="220px" width="20px" height="20px"/><rect fill="white" x="400px" y="220px" width="20px" height="20px"/><rect fill="white" x="420px" y="220px" width="20px" height="20px"/><rect fill="black" x="440px" y="220px" width="20px" height="20px"/><rect fill="white" x="40px" y="240px" width="20px" height="20px"/><rect fill="white" x="60px" y="240px" width="20px" height="20px"/><rect fill="black" x="80px" y="240px" width="20px" height="20px"/><rect fill="black" x="100px" y="240px" width="20px" height="20px"/><rect fill="black" x="120px" y="240px" width="20px" height="20px"/><rect fill="white" x="140px" y="240px" width="20px" height="20px"/><rect fill="black" x="160px" y="240px" width="20px" height="20px"/><rect fill="white" x="180px" y="240px" width="20px" height="20px"/><rect fill="white" x="200px" y="240px" width="20px" height="20px"/><rect fill="white" x="220px" y="240px" width="20px" height="20px"/><rect fill="white" x="240px" y="240px" width="20px" height="20px"/><rect fill="black" x="260px" y="240px" width="20px" height="20px"/><rect fill="white" x="280px" y="240px" width="20px" height="20px"/><rect fill="black" x="300px" y="240px" width="20px" height="20px"/><rect fill="black" x="320px" y="240px" width="20px" height="20px"/><rect fill="black" x="340px" y="240px" width="20px" height="20px"/><rect fill="white" x="360px" y="240px" width="20px" height="20px"/><rect fill="black" x="380px" y="240px" width="20px" height="20px"/><rect fill="white" x="400px" y="240px" width="20px" height="20px"/><rect fill="white" x="420px" y="240px" width="20px" height="20px"/><rect fill="white" x="440px" y="240px" width="20px" height="20px"/><rect fill="black" x="40px" y="260px" width="20px" height="20px"/><rect fill="white" x="60px" y="260px" width="20px" height="20px"/><rect fill="black" x="80px" y="260px" width="20px" height="20px"/><rect fill="black" x="100px" y="260px" width="20px" height="20px"/><rect fill="black" x="120px" y="260px" width="20px" height="20px"/><rect fill="white" x="140px" y="260px" width="20px" height="20px"/><rect fill="white" x="160px" y="260px" width="20px" height="20px"/><rect fill="white" x="180px" y="260px" width="20px" height="20px"/><rect fill="white" x="200px" y="260px" width="20px" height="20px"/><rect fill="white" x="220px" y="260px" width="20px" height="20px"/><rect fill="black" x="240px" y="260px" width="20px" height="20px"/><rect fill="black" x="260px" y="260px" width="20px" height="20px"/><rect fill="black" x="280px" y="260px" width="20px" height="20px"/><rect fill="black" x="300px" y="260px" width="20px" height="20px"/><rect fill="white" x="320px" y="260px" width="20px" height="20px"/><rect fill="black" x="340px" y="260px" width="20px" height="20px"/><rect fill="black" x="360px" y="260px" width="20px" height="20px"/><rect fill="black" x="380px" y="260px" width="20px" height="20px"/><rect fill="black" x="400px" y="260px" width="20px" height="20px"/><rect fill="black" x="420px" y="260px" width="20px" height="20px"/><rect fill="white" x="440px" y="260px" width="20px" height="20px"/><rect fill="white" x="40px" y="280px" width="20px" height="20px"/><rect fill="black" x="60px" y="280px" width="20px" height="20px"/><rect fill="white" x="80px" y="280px" width="20px" height="20px"/><rect fill="black" x="100px" y="280px" width="20px" height="20px"/><rect fill="black" x="120px" y="280px" width="20px" height="20px"/><rect fill="black" x="140px" y="280px" width="20px" height="20px"/><rect fill="black" x="160px" y="280px" width="20px" height="20px"/><rect fill="white" x="180px" y="280px" width="20px" height="20px"/><rect fill="white" x="200px" y="280px" width="20px" height="20px"/><rect fill="white" x="220px" y="280px" width="20px" height="20px"/><rect fill="white" x="240px" y="280px" width="20px" height="20px"/><rect fill="black" x="260px" y="280px" width="20px" height="20px"/><rect fill="white" x="280px" y="280px" width="20px" height="20px"/><rect fill="black" x="300px" y="280px" width="20px" height="20px"/><rect fill="black" x="320px" y="280px" width="20px" height="20px"/><rect fill="black" x="340px" y="280px" width="20px" height="20px"/><rect fill="white" x="360px" y="280px" width="20px" height="20px"/><rect fill="white" x="380px" y="280px" width="20px" height="20px"/><rect fill="black" x="400px" y="280px" width="20px" height="20px"/><rect fill="white" x="420px" y="280px" width="20px" height="20px"/><rect fill="black" x="440px" y="280px" width="20px" height="20px"/><rect fill="white" x="40px" y="300px" width="20px" height="20px"/><rect fill="white" x="60px" y="300px" width="20px" height="20px"/><rect fill="white" x="80px" y="300px" width="20px" height="20px"/><rect fill="white" x="100px" y="300px" width="20px" height="20px"/><rect fill="white" x="120px" y="300px" width="20px" height="20px"/><rect fill="white" x="140px" y="300px" width="20px" height="20px"/><rect fill="white" x="160px" y="300px" width="20px" height="20px"/><rect fill="white" x="180px" y="300px" width="20px" height="20px"/><rect fill="black" x="200px" y="300px" width="20px" height="20px"/><rect fill="black" x="220px" y="300px" width="20px" height="20px"/><rect fill="white" x="240px" y="300px" width="20px" height="20px"/><rect fill="white" x="260px" y="300px" width="20px" height="20px"/><rect fill="white" x="280px" y="300px" width="20px" height="20px"/><rect fill="white" x="300px" y="300px" width="20px" height="20px"/><rect fill="black" x="320px" y="300px" width="20px" height="20px"/><rect fill="white" x="340px" y="300px" width="20px" height="20px"/><rect fill="white" x="360px" y="300px" width="20px" height="20px"/><rect fill="white" x="380px" y="300px" width="20px" height="20px"/><rect fill="black" x="400px" y="300px" width="20px" height="20px"/><rect fill="white" x="420px" y="300px" width="20px" height="20px"/><rect fill="black" x="440px" y="300px" width="20px" height="20px"/><rect fill="black" x="40px" y="320px" width="20px" height="20px"/><rect fill="black" x="60px" y="320px" width="20px" height="20px"/><rect fill="black" x="80px" y="320px" width="20px" height="20px"/><rect fill="black" x="100px" y="320px" width="20px" height="20px"/><rect fill="black" x="120px" y="320px" width="20px" height="20px"/><rect fill="black" x="140px" y="320px" width="20px" height="20px"/><rect fill="black" x="160px" y="320px" width="20px" height="20px"/><rect fill="white" x="180px" y="320px" width="20px" height="20px"/><rect fill="black" x="200px" y="320px" width="20px" height="20px"/><rect fill="black" x="220px" y="320px" width="20px" height="20px"/><rect fill="white" x="240px" y="320px" width="20px" height="20px"/><rect fill="white" x="260px" y="320px" width="20px" height="20px"/><rect fill="black" x="280px" y="320px" width="20px" height="20px"/><rect fill="white" x="300px" y="320px" width="20px" height="20px"/><rect fill="white" x="320px" y="320px" width="20px" height="20px"/><rect fill="white" x="340px" y="320px" width="20px" height="20px"/><rect fill="black" x="360px" y="320px" width="20px" height="20px"/><rect fill="white" x="380px" y="320px" width="20px" height="20px"/><rect fill="black" x="400px" y="320px" width="20px" height="20px"/><rect fill="white" x="420px" y="320px" width="20px" height="20px"/><rect fill="white" x="440px" y="320px" width="20px" height="20px"/><rect fill="black" x="40px" y="340px" width="20px" height="20px"/><rect fill="white" x="60px" y="340px" width="20px" height="20px"/><rect fill="white" x="80px" y="340px" width="20px" height="20px"/><rect fill="white" x="100px" y="340px" width="20px" height="20px"/><rect fill="white" x="120px" y="340px" width="20px" height="20px"/><rect fill="white" x="140px" y="340px" width="20px" height="20px"/><rect fill="black" x="160px" y="340px" width="20px" height="20px"/><rect fill="white" x="180px" y="340px" width="20px" height="20px"/><rect fill="black" x="200px" y="340px" width="20px" height="20px"/><rect fill="black" x="220px" y="340px" width="20px" height="20px"/><rect fill="black" x="240px" y="340px" width="20px" height="20px"/><rect fill="white" x="260px" y="340px" width="20px" height="20px"/><rect fill="white" x="280px" y="340px" width="20px" height="20px"/><rect fill="white" x="300px" y="340px" width="20px" height="20px"/><rect fill="black" x="320px" y="340px" width="20px" height="20px"/><rect fill="white" x="340px" y="340px" width="20px" height="20px"/><rect fill="white" x="360px" y="340px" width="20px" height="20px"/><rect fill="white" x="380px" y="340px" width="20px" height="20px"/><rect fill="black" x="400px" y="340px" width="20px" height="20px"/><rect fill="black" x="420px" y="340px" width="20px" height="20px"/><rect fill="black" x="440px" y="340px" width="20px" height="20px"/><rect fill="black" x="40px" y="360px" width="20px" height="20px"/><rect fill="white" x="60px" y="360px" width="20px" height="20px"/><rect fill="black" x="80px" y="360px" width="20px" height="20px"/><rect fill="black" x="100px" y="360px" width="20px" height="20px"/><rect fill="black" x="120px" y="360px" width="20px" height="20px"/><rect fill="white" x="140px" y="360px" width="20px" height="20px"/><rect fill="black" x="160px" y="360px" width="20px" height="20px"/><rect fill="white" x="180px" y="360px" width="20px" height="20px"/><rect fill="black" x="200px" y="360px" width="20px" height="20px"/><rect fill="black" x="220px" y="360px" width="20px" height="20px"/><rect fill="black" x="240px" y="360px" width="20px" height="20px"/><rect fill="white" x="260px" y="360px" width="20px" height="20px"/><rect fill="black" x="280px" y="360px" width="20px" height="20px"/><rect fill="white" x="300px" y="360px" width="20px" height="20px"/><rect fill="black" x="320px" y="360px" width="20px" height="20px"/><rect fill="white" x="340px" y="360px" width="20px" height="20px"/><rect fill="black" x="360px" y="360px" width="20px" height="20px"/><rect fill="white" x="380px" y="360px" width="20px" height="20px"/><rect fill="black" x="400px" y="360px" width="20px" height="20px"/><rect fill="white" x="420px" y="360px" width="20px" height="20px"/><rect fill="black" x="440px" y="360px" width="20px" height="20px"/><rect fill="black" x="40px" y="380px" width="20px" height="20px"/><rect fill="white" x="60px" y="380px" width="20px" height="20px"/><rect fill="black" x="80px" y="380px" width="20px" height="20px"/><rect fill="black" x="100px" y="380px" width="20px" height="20px"/><rect fill="black" x="120px" y="380px" width="20px" height="20px"/><rect fill="white" x="140px" y="380px" width="20px" height="20px"/><rect fill="black" x="160px" y="380px" width="20px" height="20px"/><rect fill="white" x="180px" y="380px" width="20px" height="20px"/><rect fill="white" x="200px" y="380px" width="20px" height="20px"/><rect fill="white" x="220px" y="380px" width="20px" height="20px"/><rect fill="black" x="240px" y="380px" width="20px" height="20px"/><rect fill="black" x="260px" y="380px" width="20px" height="20px"/><rect fill="white" x="280px" y="380px" width="20px" height="20px"/><rect fill="black" x="300px" y="380px" width="20px" height="20px"/><rect fill="white" x="320px" y="380px" width="20px" height="20px"/><rect fill="black" x="340px" y="380px" width="20px" height="20px"/><rect fill="white" x="360px" y="380px" width="20px" height="20px"/><rect fill="black" x="380px" y="380px" width="20px" height="20px"/><rect fill="white" x="400px" y="380px" width="20px" height="20px"/><rect fill="black" x="420px" y="380px" width="20px" height="20px"/><rect fill="white" x="440px" y="380px" width="20px" height="20px"/><rect fill="black" x="40px" y="400px" width="20px" height="20px"/><rect fill="white" x="60px" y="400px" width="20px" height="20px"/><rect fill="black" x="80px" y="400px" width="20px" height="20px"/><rect fill="black" x="100px" y="400px" width="20px" height="20px"/><rect fill="black" x="120px" y="400px" width="20px" height="20px"/><rect fill="white" x="140px" y="400px" width="20px" height="20px"/><rect fill="black" x="160px" y="400px" width="20px" height="20px"/><rect fill="white" x="180px" y="400px" width="20px" height="20px"/><rect fill="black" x="200px" y="400px" width="20px" height="20px"/><rect fill="black" x="220px" y="400px" width="20px" height="20px"/><rect fill="black" x="240px" y="400px" width="20px" height="20px"/><rect fill="black" x="260px" y="400px" width="20px" height="20px"/><rect fill="white" x="280px" y="400px" width="20px" height="20px"/><rect fill="black" x="300px" y="400px" width="20px" height="20px"/><rect fill="black" x="320px" y="400px" width="20px" height="20px"/><rect fill="black" x="340px" y="400px" width="20px" height="20px"/><rect fill="white" x="360px" y="400px" width="20px" height="20px"/><rect fill="white" x="380px" y="400px" width="20px" height="20px"/><rect fill="black" x="400px" y="400px" width="20px" height="20px"/><rect fill="white" x="420px" y="400px" width="20px" height="20px"/><rect fill="black" x="440px" y="400px" width="20px" height="20px"/><rect fill="black" x="40px" y="420px" width="20px" height="20px"/><rect fill="white" x="60px" y="420px" width="20px" height="20px"/><rect fill="white" x="80px" y="420px" width="20px" height="20px"/><rect fill="white" x="100px" y="420px" width="20px" height="20px"/><rect fill="white" x="120px" y="420px" width="20px" height="20px"/><rect fill="white" x="140px" y="420px" width="20px" height="20px"/><rect fill="black" x="160px" y="420px" width="20px" height="20px"/><rect fill="white" x="180px" y="420px" width="20px" height="20px"/><rect fill="black" x="200px" y="420px" width="20px" height="20px"/><rect fill="white" x="220px" y="420px" width="20px" height="20px"/><rect fill="black" x="240px" y="420px" width="20px" height="20px"/><rect fill="black" x="260px" y="420px" width="20px" height="20px"/><rect fill="black" x="280px" y="420px" width="20px" height="20px"/><rect fill="black" x="300px" y="420px" width="20px" height="20px"/><rect fill="white" x="320px" y="420px" width="20px" height="20px"/><rect fill="black" x="340px" y="420px" width="20px" height="20px"/><rect fill="black" x="360px" y="420px" width="20px" height="20px"/><rect fill="black" x="380px" y="420px" width="20px" height="20px"/><rect fill="white" x="400px" y="420px" width="20px" height="20px"/><rect fill="black" x="420px" y="420px" width="20px" height="20px"/><rect fill="black" x="440px" y="420px" width="20px" height="20px"/><rect fill="black" x="40px" y="440px" width="20px" height="20px"/><rect fill="black" x="60px" y="440px" width="20px" height="20px"/><rect fill="black" x="80px" y="440px" width="20px" height="20px"/><rect fill="black" x="100px" y="440px" width="20px" height="20px"/><rect fill="black" x="120px" y="440px" width="20px" height="20px"/><rect fill="black" x="140px" y="440px" width="20px" height="20px"/><rect fill="black" x="160px" y="440px" width="20px" height="20px"/><rect fill="white" x="180px" y="440px" width="20px" height="20px"/><rect fill="black" x="200px" y="440px" width="20px" height="20px"/><rect fill="black" x="220px" y="440px" width="20px" height="20px"/><rect fill="black" x="240px" y="440px" width="20px" height="20px"/><rect fill="black" x="260px" y="440px" width="20px" height="20px"/><rect fill="white" x="280px" y="440px" width="20px" height="20px"/><rect fill="black" x="300px" y="440px" width="20px" height="20px"/><rect fill="black" x="320px" y="440px" width="20px" height="20px"/><rect fill="black" x="340px" y="440px" width="20px" height="20px"/><rect fill="white" x="360px" y="440px" width="20px" height="20px"/><rect fill="white" x="380px" y="440px" width="20px" height="20px"/><rect fill="black" x="400px" y="440px" width="20px" height="20px"/><rect fill="white" x="420px" y="440px" width="20px" height="20px"/><rect fill="black" x="440px" y="440px" width="20px" height="20px"/></svg>